<svg width="314" height="60" viewBox="0 0 314 60" fill="none" xmlns="http://www.w3.org/2000/svg">
<path d="M44.2847 22.9193C41.6108 25.1647 40.2739 26.2874 40.5183 27.477C40.7627 28.6666 42.4547 29.1776 45.8386 30.1995C50.975 31.7506 58.2507 34.1119 66.2488 37.212C78.7857 42.0715 94.6758 51.3783 102.956 56.444C105.85 58.2142 107.296 59.0992 108.787 59.5189C110.277 59.9386 111.904 59.9386 115.158 59.9386H115.406C115.865 59.9386 116.094 59.9386 116.183 59.7891C116.272 59.6397 116.162 59.4382 115.943 59.0353L96.5945 23.4331C96.4253 23.1217 96.3407 22.966 96.1963 22.8801C96.0518 22.7942 95.8746 22.7942 95.5203 22.7942H73.1276C72.0787 22.7942 71.5543 22.7942 71.5154 22.5863C71.4765 22.3785 71.9655 22.1889 72.9435 21.8098L92.5727 14.2004C93.0959 13.9976 93.3575 13.8962 93.4483 13.6707C93.539 13.4453 93.4205 13.1909 93.1836 12.6822L87.6349 0.768007C87.4751 0.424777 87.3951 0.253163 87.2448 0.157343C87.0945 0.0615234 86.9052 0.0615234 86.5265 0.0615234L72.4685 0.0615245C71.9911 0.0615245 71.7524 0.0615245 71.5328 0.141495C71.3132 0.221465 71.1304 0.374969 70.7649 0.681975L44.2847 22.9193Z" fill="#0D0D0D"/>
<path fill-rule="evenodd" clip-rule="evenodd" d="M148.372 7.40345V12.1794H148.361C148.096 11.7351 147.776 11.3688 147.402 11.0804C147.036 10.7842 146.623 10.5621 146.163 10.414C145.711 10.2659 145.216 10.1919 144.678 10.1919C143.626 10.1919 142.698 10.4647 141.895 11.0103C141.093 11.5481 140.465 12.3002 140.013 13.2667C139.569 14.2332 139.347 15.3478 139.347 16.6105C139.347 17.8965 139.569 19.0228 140.013 19.9893C140.457 20.9558 141.081 21.7079 141.884 22.2457C142.686 22.7836 143.622 23.0525 144.69 23.0525C145.235 23.0525 145.742 22.9706 146.209 22.8069C146.677 22.6511 147.098 22.4172 147.472 22.1055C147.846 21.7859 148.158 21.3845 148.407 20.9012H148.419V22.7952H151.494V7.40345H148.372ZM180.099 7.40345V10.4491H177.948V12.9277H180.099V19.6269C180.099 20.7103 180.403 21.5092 181.011 22.0236C181.627 22.538 182.586 22.7952 183.887 22.7952H185.734V20.3167H184.448C183.973 20.3167 183.646 20.2348 183.466 20.0711C183.295 19.8997 183.209 19.5957 183.209 19.1592V12.9277H185.734V10.4491H183.209V7.40345H180.099ZM210.563 7.40345V22.7952H213.685V15.8505C213.685 15.1724 213.794 14.6151 214.012 14.1787C214.238 13.7422 214.546 13.4226 214.936 13.22C215.333 13.0173 215.785 12.916 216.292 12.916C217.064 12.916 217.66 13.142 218.081 13.5941C218.502 14.0462 218.712 14.7165 218.712 15.605V22.7952H221.822V15.0789C221.822 14.0267 221.635 13.1381 221.261 12.4133C220.895 11.6884 220.384 11.1389 219.729 10.7648C219.075 10.3828 218.311 10.1919 217.438 10.1919C216.354 10.1919 215.45 10.4881 214.725 11.0804C214.328 11.405 213.981 11.8056 213.685 12.2822V7.40345H210.563ZM145.45 20.4687C146.073 20.4687 146.615 20.3128 147.075 20.001C147.542 19.6814 147.901 19.2333 148.15 18.6565C148.407 18.0719 148.536 17.3899 148.536 16.6105C148.536 15.831 148.407 15.1529 148.15 14.5762C147.901 13.9994 147.542 13.5512 147.075 13.2317C146.615 12.9121 146.073 12.7523 145.45 12.7523C144.865 12.7523 144.351 12.9043 143.906 13.2083C143.462 13.5045 143.115 13.9409 142.866 14.5177C142.616 15.0867 142.492 15.7843 142.492 16.6105C142.492 17.4367 142.616 18.1382 142.866 18.7149C143.115 19.2839 143.462 19.7204 143.906 20.0244C144.351 20.3206 144.865 20.4687 145.45 20.4687ZM225.956 22.2457C226.868 22.7991 227.943 23.0758 229.183 23.0758C230.157 23.0758 231.045 22.9005 231.848 22.5497C232.659 22.199 233.329 21.7157 233.859 21.1C234.389 20.4842 234.732 19.7711 234.888 18.9605H232C231.891 19.3034 231.712 19.6035 231.462 19.8607C231.213 20.1101 230.901 20.3089 230.527 20.457C230.161 20.5973 229.74 20.6674 229.264 20.6674C228.602 20.6674 228.037 20.5232 227.569 20.2348C227.109 19.9464 226.755 19.545 226.505 19.0306C226.287 18.5665 226.168 18.0326 226.146 17.4289H235.028V16.5871C235.028 15.6362 234.884 14.771 234.596 13.9916C234.315 13.2044 233.91 12.5263 233.38 11.9573C232.858 11.3883 232.23 10.9479 231.498 10.6362C230.773 10.3244 229.962 10.1685 229.066 10.1685C227.897 10.1685 226.864 10.4452 225.967 10.9986C225.071 11.552 224.37 12.3158 223.863 13.2901C223.356 14.2644 223.103 15.379 223.103 16.6339C223.103 17.8809 223.349 18.9916 223.84 19.9659C224.338 20.9324 225.044 21.6924 225.956 22.2457ZM226.171 15.3361C226.219 14.8879 226.331 14.4865 226.505 14.1319C226.755 13.6409 227.102 13.2628 227.546 12.9978C227.99 12.7328 228.512 12.6003 229.112 12.6003C229.728 12.6003 230.258 12.7328 230.702 12.9978C231.147 13.2628 231.49 13.6409 231.731 14.1319C231.906 14.4865 232.017 14.8879 232.066 15.3361H226.171ZM236.251 10.4491V22.7953H239.372V15.8973C239.372 15.2582 239.478 14.7282 239.688 14.3073C239.906 13.8786 240.203 13.5591 240.577 13.3486C240.959 13.1304 241.383 13.0213 241.851 13.0213C242.139 13.0213 242.42 13.0329 242.693 13.0563C242.966 13.0719 243.157 13.0875 243.266 13.1031V10.379C243.149 10.3712 243.005 10.3634 242.833 10.3556C242.669 10.3478 242.49 10.3439 242.295 10.3439C241.485 10.3439 240.838 10.5271 240.354 10.8934C239.871 11.252 239.517 11.7937 239.291 12.5185H239.255V10.4491H236.251ZM200.479 22.2574C201.391 22.803 202.455 23.0758 203.671 23.0758C204.466 23.0758 205.198 22.9589 205.869 22.7251C206.539 22.4835 207.123 22.1483 207.622 21.7196C208.121 21.2832 208.519 20.7765 208.815 20.1997C209.119 19.6152 209.294 18.9799 209.341 18.294H206.278C206.215 18.6292 206.114 18.9332 205.974 19.206C205.841 19.4788 205.67 19.7126 205.459 19.9075C205.249 20.1023 204.996 20.2543 204.699 20.3634C204.411 20.4648 204.08 20.5154 203.706 20.5154C203.09 20.5154 202.556 20.3556 202.104 20.0361C201.66 19.7165 201.317 19.2683 201.075 18.6916C200.841 18.107 200.724 17.4211 200.724 16.6339C200.724 15.8388 200.841 15.149 201.075 14.5645C201.317 13.9799 201.66 13.5278 202.104 13.2083C202.556 12.8887 203.09 12.7289 203.706 12.7289C204.08 12.7289 204.415 12.7835 204.711 12.8926C205.007 13.0017 205.264 13.1537 205.483 13.3486C205.701 13.5434 205.876 13.7734 206.009 14.0384C206.149 14.3034 206.247 14.5995 206.301 14.9269H209.341C209.279 14.2332 209.095 13.598 208.791 13.0212C208.495 12.4366 208.098 11.9339 207.599 11.513C207.1 11.0843 206.515 10.7531 205.845 10.5192C205.183 10.2854 204.458 10.1685 203.671 10.1685C202.455 10.1685 201.391 10.4413 200.479 10.9869C199.567 11.5325 198.854 12.2924 198.339 13.2667C197.833 14.241 197.579 15.3634 197.579 16.6339C197.579 17.9043 197.833 19.0228 198.339 19.9893C198.854 20.9558 199.567 21.7118 200.479 22.2574ZM191.598 23.0875C190.57 23.0875 189.65 22.9277 188.839 22.6081C188.036 22.2886 187.39 21.8209 186.898 21.2052C186.415 20.5894 186.139 19.8412 186.068 18.9604H189.143C189.206 19.5372 189.443 19.9893 189.856 20.3166C190.269 20.6362 190.831 20.796 191.54 20.796C192.234 20.796 192.775 20.6635 193.165 20.3985C193.563 20.1257 193.761 19.7788 193.761 19.3579C193.761 19.0072 193.613 18.7227 193.317 18.5044C193.021 18.2862 192.616 18.1225 192.101 18.0134L189.973 17.5808C188.789 17.3392 187.888 16.9183 187.273 16.3181C186.657 15.718 186.349 14.9502 186.349 14.0149C186.349 13.2511 186.556 12.5808 186.969 12.004C187.382 11.4272 187.966 10.9791 188.722 10.6595C189.486 10.3399 190.383 10.1801 191.411 10.1801C192.432 10.1801 193.329 10.3516 194.1 10.6946C194.872 11.0297 195.476 11.5052 195.913 12.1209C196.349 12.7289 196.579 13.4615 196.602 14.3189H193.691C193.683 13.7889 193.477 13.3485 193.072 12.9978C192.666 12.647 192.14 12.4717 191.493 12.4717C190.862 12.4717 190.363 12.612 189.997 12.8926C189.638 13.1654 189.459 13.5005 189.459 13.898C189.459 14.2566 189.599 14.5488 189.88 14.7749C190.16 14.9931 190.55 15.1568 191.049 15.2659L193.317 15.7219C194.549 15.9713 195.453 16.3727 196.029 16.9261C196.614 17.4795 196.906 18.2083 196.906 19.1124C196.906 19.923 196.68 20.6284 196.228 21.2285C195.776 21.8209 195.149 22.2808 194.346 22.6081C193.551 22.9277 192.635 23.0875 191.598 23.0875ZM171.558 23.0525C170.397 23.0525 169.395 22.842 168.553 22.4211C167.711 22.0002 167.061 21.404 166.601 20.6323C166.149 19.8607 165.923 18.9488 165.923 17.8965V10.4491H169.044V17.7095C169.044 18.2785 169.142 18.7656 169.336 19.1709C169.531 19.5684 169.816 19.8763 170.19 20.0945C170.564 20.305 171.02 20.4102 171.558 20.4102C172.096 20.4102 172.548 20.305 172.914 20.0945C173.288 19.8763 173.573 19.5684 173.768 19.1709C173.97 18.7656 174.072 18.2785 174.072 17.7095V10.4491H177.181V17.8965C177.181 18.9488 176.955 19.8607 176.503 20.6323C176.051 21.404 175.404 22.0002 174.563 22.4211C173.721 22.842 172.719 23.0525 171.558 23.0525ZM155.628 22.2457C156.539 22.7991 157.615 23.0758 158.854 23.0758C159.829 23.0758 160.717 22.9005 161.52 22.5497C162.331 22.199 163.001 21.7157 163.531 21.1C164.061 20.4842 164.404 19.7711 164.56 18.9605H161.672C161.563 19.3034 161.384 19.6035 161.134 19.8607C160.885 20.1101 160.573 20.3089 160.199 20.457C159.833 20.5973 159.412 20.6674 158.936 20.6674C158.274 20.6674 157.709 20.5232 157.241 20.2348C156.781 19.9464 156.426 19.545 156.177 19.0306C155.959 18.5665 155.839 18.0326 155.818 17.4289H164.7V16.5871C164.7 15.6362 164.556 14.771 164.268 13.9916C163.987 13.2044 163.582 12.5263 163.052 11.9573C162.529 11.3883 161.902 10.9479 161.169 10.6362C160.444 10.3244 159.634 10.1685 158.737 10.1685C157.568 10.1685 156.536 10.4452 155.639 10.9986C154.743 11.552 154.041 12.3158 153.535 13.2901C153.028 14.2644 152.775 15.379 152.775 16.6339C152.775 17.8809 153.02 18.9916 153.511 19.9659C154.01 20.9324 154.716 21.6924 155.628 22.2457ZM161.738 15.3361H155.843C155.891 14.8879 156.003 14.4865 156.177 14.1319C156.426 13.6409 156.773 13.2628 157.218 12.9978C157.662 12.7328 158.184 12.6003 158.784 12.6003C159.4 12.6003 159.93 12.7328 160.374 12.9978C160.819 13.2628 161.162 13.6409 161.403 14.1319C161.578 14.4865 161.689 14.8879 161.738 15.3361Z" fill="#0D0D0D"/>
<path fill-rule="evenodd" clip-rule="evenodd" d="M178.938 38.5622V42.7333H175.724V26.832H178.938V35.076H178.975L183.754 30.0194H187.571L182.473 35.5161L187.872 42.7333H184.067L180.051 37.3822L178.938 38.5622ZM260.946 26.832V42.7333H264.113V40.7828H264.125C264.382 41.2805 264.703 41.6938 265.088 42.0229C265.473 42.344 265.907 42.5848 266.388 42.7453C266.878 42.9139 267.4 42.9981 267.954 42.9981C269.061 42.9981 270.024 42.7212 270.843 42.1674C271.67 41.6136 272.312 40.839 272.769 39.8437C273.227 38.8485 273.456 37.6886 273.456 36.3643C273.456 35.064 273.223 33.9162 272.757 32.9209C272.3 31.9256 271.658 31.1511 270.831 30.5973C270.012 30.0354 269.061 29.7545 267.978 29.7545C267.432 29.7545 266.918 29.8307 266.437 29.9832C265.963 30.1357 265.534 30.3645 265.148 30.6695C264.771 30.9665 264.446 31.3437 264.173 31.8012H264.161V26.832H260.946ZM310.787 26.832V31.8012H310.775C310.502 31.3437 310.173 30.9665 309.788 30.6695C309.41 30.3645 308.985 30.1357 308.512 29.9832C308.046 29.8307 307.536 29.7545 306.982 29.7545C305.899 29.7545 304.944 30.0354 304.117 30.5973C303.29 31.1511 302.644 31.9256 302.179 32.9209C301.721 33.9162 301.492 35.064 301.492 36.3643C301.492 37.6886 301.721 38.8485 302.179 39.8437C302.636 40.839 303.278 41.6136 304.105 42.1674C304.932 42.7212 305.895 42.9981 306.995 42.9981C307.556 42.9981 308.078 42.9139 308.56 42.7453C309.041 42.5848 309.475 42.344 309.86 42.0229C310.245 41.6938 310.566 41.2805 310.823 40.7828H310.835V42.7333H314.002V26.832H310.787ZM267.171 40.3374C267.781 40.3374 268.315 40.1849 268.772 39.8799C269.23 39.5668 269.583 39.1174 269.832 38.5314C270.089 37.9375 270.217 37.2151 270.217 36.3643C270.217 35.5135 270.089 34.7951 269.832 34.2092C269.583 33.6152 269.23 33.1657 268.772 32.8607C268.315 32.5477 267.781 32.3912 267.171 32.3912C266.529 32.3912 265.967 32.5557 265.485 32.8848C265.012 33.2139 264.643 33.6754 264.378 34.2694C264.121 34.8633 263.993 35.5616 263.993 36.3643C263.993 37.1669 264.121 37.8692 264.378 38.4712C264.643 39.0652 265.012 39.5267 265.485 39.8558C265.967 40.1768 266.529 40.3374 267.171 40.3374ZM307.777 40.3374C308.419 40.3374 308.977 40.1768 309.451 39.8558C309.932 39.5267 310.301 39.0652 310.558 38.4712C310.823 37.8692 310.956 37.1669 310.956 36.3643C310.956 35.5616 310.823 34.8633 310.558 34.2694C310.301 33.6754 309.932 33.2139 309.451 32.8848C308.977 32.5557 308.419 32.3912 307.777 32.3912C307.175 32.3912 306.645 32.5477 306.188 32.8607C305.73 33.1657 305.373 33.6152 305.116 34.2092C304.859 34.7951 304.731 35.5135 304.731 36.3643C304.731 37.2151 304.859 37.9375 305.116 38.5314C305.373 39.1174 305.73 39.5668 306.188 39.8799C306.645 40.1849 307.175 40.3374 307.777 40.3374ZM291.794 35.5817V42.7333H288.579V30.0194H291.733V32.006C292.052 31.4714 292.429 31.0259 292.865 30.6695C293.612 30.0595 294.543 29.7545 295.658 29.7545C296.557 29.7545 297.344 29.9511 298.018 30.3444C298.692 30.7297 299.218 31.2956 299.595 32.042C299.981 32.7885 300.173 33.7035 300.173 34.7871V42.7333H296.971V35.3289C296.971 34.4138 296.754 33.7236 296.321 33.258C295.887 32.7925 295.273 32.5597 294.479 32.5597C293.957 32.5597 293.491 32.6641 293.082 32.8728C292.681 33.0815 292.364 33.4105 292.131 33.86C291.906 34.3095 291.794 34.8834 291.794 35.5817ZM276.81 42.1674C277.636 42.7212 278.599 42.9981 279.699 42.9981C280.261 42.9981 280.779 42.9139 281.252 42.7453C281.734 42.5848 282.167 42.344 282.552 42.0229C282.938 41.7019 283.259 41.3046 283.516 40.831H283.54V42.7333H286.694V30.0194H283.54V31.7772H283.504C283.239 31.3277 282.914 30.9544 282.528 30.6575C282.143 30.3605 281.71 30.1357 281.228 29.9832C280.755 29.8307 280.241 29.7545 279.687 29.7545C278.603 29.7545 277.648 30.0354 276.822 30.5973C275.995 31.1511 275.349 31.9256 274.883 32.9209C274.426 33.9162 274.197 35.064 274.197 36.3643C274.197 37.6886 274.426 38.8485 274.883 39.8437C275.341 40.839 275.983 41.6136 276.81 42.1674ZM282.155 39.8558C281.682 40.1768 281.124 40.3374 280.482 40.3374C279.88 40.3374 279.35 40.1849 278.892 39.8799C278.435 39.5668 278.078 39.1174 277.821 38.5314C277.564 37.9375 277.436 37.2151 277.436 36.3643C277.436 35.5135 277.564 34.7951 277.821 34.2092C278.078 33.6152 278.435 33.1657 278.892 32.8607C279.35 32.5477 279.88 32.3912 280.482 32.3912C281.124 32.3912 281.682 32.5557 282.155 32.8848C282.637 33.2139 283.006 33.6754 283.263 34.2694C283.528 34.8633 283.66 35.5616 283.66 36.3643C283.66 37.1669 283.528 37.8692 283.263 38.4712C283.006 39.0652 282.637 39.5267 282.155 39.8558ZM252.801 30.0194V42.7333H256.016V35.6299C256.016 34.9717 256.124 34.4259 256.341 33.9925C256.565 33.551 256.87 33.2219 257.256 33.0052C257.649 32.7805 258.086 32.6681 258.568 32.6681C258.865 32.6681 259.154 32.6801 259.435 32.7042C259.716 32.7203 259.912 32.7363 260.025 32.7524V29.9471C259.904 29.9391 259.756 29.9311 259.579 29.923C259.411 29.915 259.226 29.911 259.026 29.911C258.191 29.911 257.525 30.0996 257.027 30.4769C256.529 30.8461 256.164 31.4039 255.931 32.1504H255.895V30.0194H252.801ZM245.522 43.0222C244.246 43.0222 243.138 42.7373 242.199 42.1674C241.26 41.5975 240.534 40.815 240.02 39.8197C239.514 38.8164 239.262 37.6726 239.262 36.3884C239.262 35.0961 239.522 33.9483 240.044 32.945C240.566 31.9417 241.288 31.1551 242.211 30.5852C243.134 30.0153 244.198 29.7304 245.402 29.7304C246.325 29.7304 247.16 29.8909 247.906 30.212C248.661 30.5331 249.307 30.9865 249.845 31.5725C250.39 32.1584 250.808 32.8567 251.097 33.6674C251.394 34.47 251.542 35.361 251.542 36.3402V37.2071H242.396C242.417 37.8287 242.541 38.3785 242.765 38.8565C243.022 39.3862 243.387 39.7996 243.861 40.0966C244.342 40.3936 244.924 40.542 245.607 40.542C246.096 40.542 246.53 40.4698 246.907 40.3253C247.292 40.1728 247.613 39.9682 247.87 39.7113C248.127 39.4464 248.311 39.1374 248.424 38.7843H251.398C251.237 39.619 250.884 40.3534 250.338 40.9875C249.792 41.6216 249.102 42.1192 248.267 42.4804C247.441 42.8416 246.526 43.0222 245.522 43.0222ZM248.491 35.0519H242.421C242.471 34.5904 242.585 34.1771 242.765 33.8119C243.022 33.3062 243.379 32.9169 243.837 32.644C244.294 32.3711 244.832 32.2347 245.45 32.2347C246.084 32.2347 246.63 32.3711 247.087 32.644C247.545 32.9169 247.898 33.3062 248.147 33.8119C248.327 34.1771 248.441 34.5904 248.491 35.0519ZM226.481 30.0194L231.236 42.7333H234.764L239.52 30.0194H236.173L233.969 36.5328C233.737 37.2472 233.512 37.9656 233.295 38.6879C233.213 38.971 233.13 39.2547 233.047 39.539C232.961 39.2547 232.875 38.971 232.79 38.6879C232.573 37.9656 232.348 37.2472 232.115 36.5328L229.864 30.0194H226.481ZM214.656 42.7333V30.0194H217.751V32.1504H217.787C218.019 31.4039 218.385 30.8461 218.882 30.4769C219.38 30.0996 220.046 29.911 220.881 29.911C221.082 29.911 221.266 29.915 221.435 29.923C221.611 29.9311 221.76 29.9391 221.88 29.9471V32.7524C221.768 32.7363 221.571 32.7203 221.29 32.7042C221.009 32.6801 220.72 32.6681 220.423 32.6681C219.942 32.6681 219.504 32.7805 219.111 33.0052C218.726 33.2219 218.421 33.551 218.196 33.9925C217.979 34.4259 217.871 34.9717 217.871 35.6299V42.7333H214.656ZM203.874 42.348C204.741 42.7814 205.772 42.9981 206.968 42.9981C208.164 42.9981 209.196 42.7814 210.062 42.348C210.929 41.9146 211.596 41.3006 212.061 40.5059C212.527 39.7113 212.759 38.7722 212.759 37.6886V30.0194H209.557V37.496C209.557 38.0819 209.452 38.5836 209.244 39.001C209.043 39.4103 208.75 39.7274 208.365 39.9521C207.988 40.1688 207.522 40.2772 206.968 40.2772C206.414 40.2772 205.945 40.1688 205.56 39.9521C205.174 39.7274 204.881 39.4103 204.681 39.001C204.48 38.5836 204.38 38.0819 204.38 37.496V30.0194H201.165V37.6886C201.165 38.7722 201.398 39.7113 201.863 40.5059C202.337 41.3006 203.007 41.9146 203.874 42.348ZM193.525 43.0222C192.273 43.0222 191.169 42.7453 190.214 42.1915C189.259 41.6377 188.517 40.8631 187.987 39.8678C187.457 38.8725 187.192 37.7127 187.192 36.3884C187.192 35.064 187.457 33.9042 187.987 32.9089C188.517 31.9056 189.259 31.127 190.214 30.5732C191.169 30.0113 192.273 29.7304 193.525 29.7304C194.793 29.7304 195.901 30.0113 196.848 30.5732C197.795 31.127 198.534 31.9056 199.063 32.9089C199.593 33.9042 199.858 35.064 199.858 36.3884C199.858 37.7127 199.593 38.8725 199.063 39.8678C198.534 40.8631 197.795 41.6377 196.848 42.1915C195.901 42.7453 194.793 43.0222 193.525 43.0222ZM193.525 40.3735C194.151 40.3735 194.697 40.213 195.163 39.8919C195.628 39.5708 195.985 39.1133 196.234 38.5194C196.491 37.9174 196.619 37.2071 196.619 36.3884C196.619 35.5536 196.491 34.8393 196.234 34.2453C195.985 33.6513 195.628 33.1938 195.163 32.8728C194.697 32.5437 194.151 32.3791 193.525 32.3791C192.907 32.3791 192.365 32.5397 191.9 32.8607C191.434 33.1818 191.073 33.6433 190.816 34.2453C190.559 34.8393 190.431 35.5536 190.431 36.3884C190.431 37.2151 190.559 37.9254 190.816 38.5194C191.073 39.1133 191.43 39.5708 191.888 39.8919C192.353 40.213 192.899 40.3735 193.525 40.3735ZM167.578 42.7333V30.0194H170.673V32.1504H170.709C170.941 31.4039 171.307 30.8461 171.804 30.4769C172.302 30.0996 172.968 29.911 173.803 29.911C174.003 29.911 174.188 29.915 174.357 29.923C174.533 29.9311 174.682 29.9391 174.802 29.9471V32.7524C174.69 32.7363 174.493 32.7203 174.212 32.7042C173.931 32.6801 173.642 32.6681 173.345 32.6681C172.864 32.6681 172.426 32.7805 172.033 33.0052C171.648 33.2219 171.343 33.551 171.118 33.9925C170.901 34.4259 170.793 34.9717 170.793 35.6299V42.7333H167.578ZM155.809 42.1674C156.635 42.7212 157.599 42.9981 158.698 42.9981C159.26 42.9981 159.778 42.9139 160.251 42.7453C160.733 42.5848 161.166 42.344 161.552 42.0229C161.937 41.7019 162.258 41.3046 162.515 40.831H162.539V42.7333H165.693V30.0194H162.539V31.7772H162.503C162.238 31.3277 161.913 30.9544 161.528 30.6575C161.142 30.3605 160.709 30.1357 160.227 29.9832C159.754 29.8307 159.24 29.7545 158.686 29.7545C157.603 29.7545 156.648 30.0354 155.821 30.5973C154.994 31.1511 154.348 31.9256 153.882 32.9209C153.425 33.9162 153.196 35.064 153.196 36.3643C153.196 37.6886 153.425 38.8485 153.882 39.8437C154.34 40.839 154.982 41.6136 155.809 42.1674ZM161.154 39.8558C160.681 40.1768 160.123 40.3374 159.481 40.3374C158.879 40.3374 158.349 40.1849 157.892 39.8799C157.434 39.5668 157.077 39.1174 156.82 38.5314C156.563 37.9375 156.435 37.2151 156.435 36.3643C156.435 35.5135 156.563 34.7951 156.82 34.2092C157.077 33.6152 157.434 33.1657 157.892 32.8607C158.349 32.5477 158.879 32.3912 159.481 32.3912C160.123 32.3912 160.681 32.5557 161.154 32.8848C161.636 33.2139 162.005 33.6754 162.262 34.2694C162.527 34.8633 162.659 35.5616 162.659 36.3643C162.659 37.1669 162.527 37.8692 162.262 38.4712C162.005 39.0652 161.636 39.5267 161.154 39.8558ZM139.946 45.7325H143.16V40.831H143.196C143.453 41.3046 143.766 41.7019 144.136 42.0229C144.513 42.344 144.938 42.5848 145.412 42.7453C145.885 42.9139 146.399 42.9981 146.953 42.9981C148.06 42.9981 149.024 42.7212 149.842 42.1674C150.669 41.6136 151.311 40.839 151.769 39.8437C152.226 38.8485 152.455 37.6886 152.455 36.3643C152.455 35.064 152.222 33.9162 151.757 32.9209C151.299 31.9256 150.657 31.1511 149.83 30.5973C149.012 30.0354 148.06 29.7545 146.977 29.7545C146.431 29.7545 145.913 29.8307 145.424 29.9832C144.942 30.1357 144.509 30.3605 144.123 30.6575C143.738 30.9544 143.413 31.3277 143.148 31.7772H143.112V30.0194H139.946V45.7325ZM147.772 39.8799C147.314 40.1849 146.78 40.3374 146.17 40.3374C145.528 40.3374 144.966 40.1768 144.485 39.8558C144.011 39.5267 143.642 39.0652 143.377 38.4712C143.12 37.8692 142.992 37.1669 142.992 36.3643C142.992 35.5616 143.12 34.8633 143.377 34.2694C143.642 33.6754 144.011 33.2139 144.485 32.8848C144.966 32.5557 145.528 32.3912 146.17 32.3912C146.78 32.3912 147.314 32.5477 147.772 32.8607C148.229 33.1657 148.582 33.6152 148.831 34.2092C149.088 34.7951 149.216 35.5135 149.216 36.3643C149.216 37.2151 149.088 37.9375 148.831 38.5314C148.582 39.1174 148.229 39.5668 147.772 39.8799Z" fill="#0D0D0D"/>
<path d="M60.2057 39.5735C62.5348 38.6634 63.6994 38.2083 63.6055 37.7102C63.5116 37.212 62.2613 37.212 59.7607 37.212H29.735C29.2773 37.212 29.0484 37.212 28.8365 37.286C28.6246 37.3599 28.4454 37.5023 28.087 37.7871L1.58028 58.8484C1.00974 59.3017 0.724468 59.5284 0.795979 59.7333C0.86749 59.9383 1.23185 59.9383 1.96056 59.9384L3.86676 59.9384C5.97299 59.9385 7.02611 59.9386 8.05497 59.7447C9.08384 59.5508 10.0647 59.1675 12.0265 58.4009L60.2057 39.5735Z" fill="#0D0D0D"/>
</svg>
