<?xml version="1.0" encoding="UTF-8" standalone="no"?>
<!-- Created with Inkscape (http://www.inkscape.org/) -->

<svg
   width="81.840637mm"
   height="15.822083mm"
   viewBox="0 0 81.840637 15.822083"
   version="1.1"
   id="svg1"
   xml:space="preserve"
   inkscape:version="1.3.2 (1:1.3.2+202311252150+091e20ef0f)"
   sodipodi:docname="Logo.svg"
   xmlns:inkscape="http://www.inkscape.org/namespaces/inkscape"
   xmlns:sodipodi="http://sodipodi.sourceforge.net/DTD/sodipodi-0.dtd"
   xmlns="http://www.w3.org/2000/svg"
   xmlns:svg="http://www.w3.org/2000/svg"><sodipodi:namedview
     id="namedview1"
     pagecolor="#ffffff"
     bordercolor="#666666"
     borderopacity="1.0"
     inkscape:showpageshadow="2"
     inkscape:pageopacity="0.0"
     inkscape:pagecheckerboard="0"
     inkscape:deskcolor="#d1d1d1"
     inkscape:document-units="mm"
     inkscape:zoom="1.6335234"
     inkscape:cx="45.300851"
     inkscape:cy="100.09039"
     inkscape:window-width="1874"
     inkscape:window-height="1011"
     inkscape:window-x="46"
     inkscape:window-y="32"
     inkscape:window-maximized="1"
     inkscape:current-layer="layer1" /><defs
     id="defs1" /><g
     inkscape:label="Layer 1"
     inkscape:groupmode="layer"
     id="layer1"
     transform="translate(-79.662651,-121.58219)"><g
       id="g1"
       transform="matrix(0.26458333,0,0,0.26458333,79.455998,121.55573)"><path
         class="st0"
         d="m 44.3,22.9 c -2.7,2.2 -4,3.4 -3.8,4.6 0.2,1.2 1.9,1.7 5.3,2.7 5.1,1.6 12.4,3.9 20.4,7 12.5,4.9 28.4,14.2 36.7,19.2 2.9,1.8 4.3,2.7 5.8,3.1 1.5,0.4 3.1,0.4 6.4,0.4 h 0.2 c 0.5,0 0.7,0 0.8,-0.1 0.1,-0.1 0,-0.4 -0.2,-0.8 L 96.6,23.4 C 96.4,23.1 96.3,22.9 96.2,22.8 96.1,22.7 95.9,22.7 95.5,22.7 H 73.1 c -1,0 -1.6,0 -1.6,-0.2 0,-0.2 0.5,-0.4 1.4,-0.8 l 19.6,-7.6 c 0.5,-0.2 0.8,-0.3 0.9,-0.5 0.1,-0.2 0,-0.5 -0.3,-1 L 87.6,0.8 C 87.4,0.5 87.4,0.3 87.2,0.2 87,0.1 86.9,0.1 86.5,0.1 H 72.4 c -0.5,0 -0.7,0 -0.9,0.1 -0.2,0.1 -0.4,0.2 -0.8,0.5 z"
         id="path1" /><path
         class="st1"
         d="m 148.4,7.4 v 4.8 0 c -0.3,-0.4 -0.6,-0.8 -1,-1.1 -0.4,-0.3 -0.8,-0.5 -1.2,-0.7 -0.5,-0.1 -0.9,-0.2 -1.5,-0.2 -1.1,0 -2,0.3 -2.8,0.8 -0.8,0.5 -1.4,1.3 -1.9,2.3 -0.4,1 -0.7,2.1 -0.7,3.3 0,1.3 0.2,2.4 0.7,3.4 0.5,1 1.1,1.7 1.9,2.3 0.8,0.5 1.7,0.8 2.8,0.8 0.5,0 1.1,-0.1 1.5,-0.2 0.5,-0.2 0.9,-0.4 1.3,-0.7 0.4,-0.3 0.7,-0.7 0.9,-1.2 v 0 1.9 h 3.1 V 7.4 Z m 31.7,0 v 3 h -2.2 v 2.5 h 2.2 v 6.7 c 0,1.1 0.3,1.9 0.9,2.4 0.6,0.5 1.6,0.8 2.9,0.8 h 1.8 v -2.5 h -1.3 c -0.5,0 -0.8,-0.1 -1,-0.2 -0.2,-0.2 -0.3,-0.5 -0.3,-0.9 V 13 h 2.5 v -2.5 h -2.5 v -3 h -3 z m 30.5,0 v 15.4 h 3.1 v -6.9 c 0,-0.7 0.1,-1.2 0.3,-1.7 0.2,-0.4 0.5,-0.8 0.9,-1 0.4,-0.2 0.8,-0.3 1.4,-0.3 0.8,0 1.4,0.2 1.8,0.7 0.4,0.5 0.6,1.1 0.6,2 v 7.2 h 3.1 v -7.7 c 0,-1.1 -0.2,-1.9 -0.6,-2.7 -0.4,-0.7 -0.9,-1.3 -1.5,-1.6 -0.7,-0.4 -1.4,-0.6 -2.3,-0.6 -1.1,0 -2,0.3 -2.7,0.9 -0.4,0.3 -0.7,0.7 -1,1.2 V 7.4 Z m -65.2,13.1 c 0.6,0 1.2,-0.2 1.6,-0.5 0.5,-0.3 0.8,-0.8 1.1,-1.3 0.3,-0.6 0.4,-1.3 0.4,-2 0,-0.8 -0.1,-1.5 -0.4,-2 -0.2,-0.6 -0.6,-1 -1.1,-1.3 -0.5,-0.3 -1,-0.5 -1.6,-0.5 -0.6,0 -1.1,0.2 -1.5,0.5 -0.4,0.3 -0.8,0.7 -1,1.3 -0.3,0.6 -0.4,1.3 -0.4,2.1 0,0.8 0.1,1.5 0.4,2.1 0.2,0.6 0.6,1 1,1.3 0.5,0.1 1,0.3 1.5,0.3 z m 80.6,1.7 c 0.9,0.6 2,0.8 3.2,0.8 1,0 1.9,-0.2 2.7,-0.5 0.8,-0.4 1.5,-0.8 2,-1.4 0.5,-0.6 0.9,-1.3 1,-2.1 H 232 c -0.1,0.3 -0.3,0.6 -0.5,0.9 -0.2,0.2 -0.6,0.4 -0.9,0.6 -0.4,0.1 -0.8,0.2 -1.3,0.2 -0.7,0 -1.2,-0.1 -1.7,-0.4 -0.5,-0.3 -0.8,-0.7 -1.1,-1.2 -0.2,-0.5 -0.3,-1 -0.4,-1.6 h 8.9 v -0.8 c 0,-1 -0.1,-1.8 -0.4,-2.6 -0.3,-0.8 -0.7,-1.5 -1.2,-2 -0.5,-0.6 -1.2,-1 -1.9,-1.3 -0.7,-0.3 -1.5,-0.5 -2.4,-0.5 -1.2,0 -2.2,0.3 -3.1,0.8 -0.9,0.6 -1.6,1.3 -2.1,2.3 -0.5,1 -0.8,2.1 -0.8,3.3 0,1.2 0.2,2.4 0.7,3.3 0.5,0.9 1.2,1.7 2.2,2.2 z m 0.2,-6.9 c 0,-0.4 0.2,-0.8 0.3,-1.2 0.3,-0.5 0.6,-0.9 1,-1.1 0.4,-0.2 1,-0.4 1.6,-0.4 0.6,0 1.1,0.1 1.6,0.4 0.4,0.3 0.8,0.6 1,1.1 0.2,0.4 0.3,0.8 0.3,1.2 z m 10.1,-4.9 v 12.3 h 3.1 v -6.9 c 0,-0.6 0.1,-1.2 0.3,-1.6 0.2,-0.4 0.5,-0.7 0.9,-1 0.4,-0.2 0.8,-0.3 1.3,-0.3 0.3,0 0.6,0 0.8,0 0.3,0 0.5,0 0.6,0 v -2.7 c -0.1,0 -0.3,0 -0.4,0 -0.2,0 -0.3,0 -0.5,0 -0.8,0 -1.5,0.2 -1.9,0.5 -0.5,0.4 -0.8,0.9 -1.1,1.6 v 0 -2.1 h -3.1 z m -35.8,11.9 c 0.9,0.5 2,0.8 3.2,0.8 0.8,0 1.5,-0.1 2.2,-0.4 0.7,-0.2 1.3,-0.6 1.8,-1 0.5,-0.4 0.9,-0.9 1.2,-1.5 0.3,-0.6 0.5,-1.2 0.5,-1.9 h -3.1 c -0.1,0.3 -0.2,0.6 -0.3,0.9 -0.1,0.3 -0.3,0.5 -0.5,0.7 -0.2,0.2 -0.5,0.3 -0.8,0.5 -0.3,0.1 -0.6,0.2 -1,0.2 -0.6,0 -1.1,-0.2 -1.6,-0.5 -0.4,-0.3 -0.8,-0.8 -1,-1.3 -0.2,-0.6 -0.4,-1.3 -0.4,-2.1 0,-0.8 0.1,-1.5 0.4,-2.1 0.2,-0.6 0.6,-1 1,-1.4 0.5,-0.3 1,-0.5 1.6,-0.5 0.4,0 0.7,0.1 1,0.2 0.3,0.1 0.6,0.3 0.8,0.5 0.2,0.2 0.4,0.4 0.5,0.7 0.1,0.3 0.2,0.6 0.3,0.9 h 3 c -0.1,-0.7 -0.2,-1.3 -0.6,-1.9 -0.3,-0.6 -0.7,-1.1 -1.2,-1.5 -0.5,-0.4 -1.1,-0.8 -1.8,-1 -0.7,-0.2 -1.4,-0.4 -2.2,-0.4 -1.2,0 -2.3,0.3 -3.2,0.8 -0.9,0.5 -1.6,1.3 -2.1,2.3 -0.5,1 -0.8,2.1 -0.8,3.4 0,1.3 0.3,2.4 0.8,3.4 0.7,0.9 1.4,1.6 2.3,2.2 z m -8.9,0.8 c -1,0 -1.9,-0.2 -2.8,-0.5 -0.8,-0.3 -1.4,-0.8 -1.9,-1.4 -0.5,-0.6 -0.8,-1.4 -0.8,-2.2 h 3.1 c 0.1,0.6 0.3,1 0.7,1.4 0.4,0.3 1,0.5 1.7,0.5 0.7,0 1.2,-0.1 1.6,-0.4 0.4,-0.3 0.6,-0.6 0.6,-1 0,-0.4 -0.1,-0.6 -0.4,-0.9 -0.3,-0.2 -0.7,-0.4 -1.2,-0.5 l -2.1,-0.4 c -1.2,-0.2 -2.1,-0.7 -2.7,-1.3 -0.6,-0.6 -0.9,-1.4 -0.9,-2.3 0,-0.8 0.2,-1.4 0.6,-2 0.4,-0.6 1,-1 1.8,-1.3 0.8,-0.3 1.7,-0.5 2.7,-0.5 1,0 1.9,0.2 2.7,0.5 0.8,0.3 1.4,0.8 1.8,1.4 0.4,0.6 0.7,1.3 0.7,2.2 h -2.9 c 0,-0.5 -0.2,-1 -0.6,-1.3 -0.4,-0.4 -0.9,-0.5 -1.6,-0.5 -0.6,0 -1.1,0.1 -1.5,0.4 -0.4,0.3 -0.5,0.6 -0.5,1 0,0.4 0.1,0.7 0.4,0.9 0.3,0.2 0.7,0.4 1.2,0.5 l 2.3,0.5 c 1.2,0.2 2.1,0.7 2.7,1.2 0.6,0.6 0.9,1.3 0.9,2.2 0,0.8 -0.2,1.5 -0.7,2.1 -0.5,0.6 -1.1,1.1 -1.9,1.4 -1,0.1 -2,0.3 -3,0.3 z m -20,0 c -1.2,0 -2.2,-0.2 -3,-0.6 -0.8,-0.4 -1.5,-1 -2,-1.8 -0.5,-0.8 -0.7,-1.7 -0.7,-2.7 v -7.4 h 3.1 v 7.3 c 0,0.6 0.1,1.1 0.3,1.5 0.2,0.4 0.5,0.7 0.9,0.9 0.4,0.2 0.8,0.3 1.4,0.3 0.6,0 1,-0.1 1.4,-0.3 0.4,-0.2 0.7,-0.5 0.9,-0.9 0.2,-0.4 0.3,-0.9 0.3,-1.5 v -7.3 h 3.1 V 18 c 0,1.1 -0.2,2 -0.7,2.7 -0.5,0.8 -1.1,1.4 -1.9,1.8 -1,0.3 -2,0.6 -3.1,0.6 z m -16,-0.9 c 0.9,0.6 2,0.8 3.2,0.8 1,0 1.9,-0.2 2.7,-0.5 0.8,-0.4 1.5,-0.8 2,-1.4 0.5,-0.6 0.9,-1.3 1,-2.1 h -2.9 c -0.1,0.3 -0.3,0.6 -0.5,0.9 -0.2,0.2 -0.6,0.4 -0.9,0.6 -0.4,0.1 -0.8,0.2 -1.3,0.2 -0.7,0 -1.2,-0.1 -1.7,-0.4 -0.5,-0.3 -0.8,-0.7 -1.1,-1.2 -0.2,-0.5 -0.3,-1 -0.4,-1.6 h 8.9 v -0.8 c 0,-1 -0.1,-1.8 -0.4,-2.6 -0.3,-0.8 -0.7,-1.5 -1.2,-2 -0.5,-0.6 -1.2,-1 -1.9,-1.3 -0.7,-0.3 -1.5,-0.5 -2.4,-0.5 -1.2,0 -2.2,0.3 -3.1,0.8 -0.9,0.6 -1.6,1.3 -2.1,2.3 -0.5,1 -0.8,2.1 -0.8,3.3 0,1.2 0.2,2.4 0.7,3.3 0.6,0.9 1.3,1.7 2.2,2.2 z m 6.1,-6.9 h -5.9 c 0,-0.4 0.2,-0.8 0.3,-1.2 0.2,-0.5 0.6,-0.9 1,-1.1 0.4,-0.3 1,-0.4 1.6,-0.4 0.6,0 1.1,0.1 1.6,0.4 0.4,0.3 0.8,0.6 1,1.1 0.3,0.4 0.4,0.8 0.4,1.2 z"
         id="path2" /><path
         class="st1"
         d="m 178.9,38.6 v 4.2 h -3.2 v -16 h 3.2 v 8.2 0 l 4.8,-5.1 h 3.8 l -5.1,5.5 5.4,7.2 H 184 l -4,-5.4 z m 78,-11.8 v 15.9 h 3.2 v -2 0 c 0.3,0.5 0.6,0.9 1,1.2 0.4,0.3 0.8,0.6 1.3,0.7 0.5,0.2 1,0.3 1.6,0.3 1.1,0 2.1,-0.3 2.9,-0.8 0.8,-0.6 1.5,-1.3 1.9,-2.3 0.5,-1 0.7,-2.2 0.7,-3.5 0,-1.3 -0.2,-2.4 -0.7,-3.4 -0.5,-1 -1.1,-1.8 -1.9,-2.3 -0.8,-0.6 -1.8,-0.8 -2.9,-0.8 -0.5,0 -1.1,0.1 -1.5,0.2 -0.5,0.2 -0.9,0.4 -1.3,0.7 -0.4,0.3 -0.7,0.7 -1,1.1 v 0 -5 z m 49.9,0 v 5 0 c -0.3,-0.5 -0.6,-0.8 -1,-1.1 -0.4,-0.3 -0.8,-0.5 -1.3,-0.7 -0.5,-0.2 -1,-0.2 -1.5,-0.2 -1.1,0 -2,0.3 -2.9,0.8 -0.8,0.6 -1.5,1.3 -1.9,2.3 -0.5,1 -0.7,2.1 -0.7,3.4 0,1.3 0.2,2.5 0.7,3.5 0.5,1 1.1,1.8 1.9,2.3 0.8,0.5 1.8,0.8 2.9,0.8 0.6,0 1.1,-0.1 1.6,-0.3 0.5,-0.2 0.9,-0.4 1.3,-0.7 0.4,-0.3 0.7,-0.7 1,-1.2 v 0 2 h 3.2 V 26.8 Z m -43.6,13.5 c 0.6,0 1.1,-0.2 1.6,-0.5 0.5,-0.3 0.8,-0.8 1.1,-1.3 0.3,-0.6 0.4,-1.3 0.4,-2.2 0,-0.9 -0.1,-1.6 -0.4,-2.2 -0.2,-0.6 -0.6,-1 -1.1,-1.3 -0.5,-0.3 -1,-0.5 -1.6,-0.5 -0.6,0 -1.2,0.2 -1.7,0.5 -0.5,0.3 -0.8,0.8 -1.1,1.4 -0.3,0.6 -0.4,1.3 -0.4,2.1 0,0.8 0.1,1.5 0.4,2.1 0.3,0.6 0.6,1.1 1.1,1.4 0.5,0.4 1,0.5 1.7,0.5 z m 40.6,0 c 0.6,0 1.2,-0.2 1.7,-0.5 0.5,-0.3 0.9,-0.8 1.1,-1.4 0.3,-0.6 0.4,-1.3 0.4,-2.1 0,-0.8 -0.1,-1.5 -0.4,-2.1 -0.3,-0.6 -0.6,-1.1 -1.1,-1.4 -0.5,-0.3 -1,-0.5 -1.7,-0.5 -0.6,0 -1.1,0.2 -1.6,0.5 -0.5,0.3 -0.8,0.8 -1.1,1.3 -0.3,0.6 -0.4,1.3 -0.4,2.2 0,0.9 0.1,1.6 0.4,2.2 0.3,0.6 0.6,1 1.1,1.3 0.4,0.4 1,0.5 1.6,0.5 z m -16,-4.7 v 7.2 h -3.2 V 30 h 3.2 v 2 c 0.3,-0.5 0.7,-1 1.1,-1.3 0.7,-0.6 1.7,-0.9 2.8,-0.9 0.9,0 1.7,0.2 2.4,0.6 0.7,0.4 1.2,1 1.6,1.7 0.4,0.7 0.6,1.7 0.6,2.7 v 7.9 H 293 v -7.4 c 0,-0.9 -0.2,-1.6 -0.6,-2.1 -0.4,-0.5 -1,-0.7 -1.8,-0.7 -0.5,0 -1,0.1 -1.4,0.3 -0.4,0.2 -0.7,0.5 -1,1 -0.3,0.5 -0.4,1.1 -0.4,1.8 z m -15,6.6 c 0.8,0.6 1.8,0.8 2.9,0.8 0.6,0 1.1,-0.1 1.6,-0.3 0.5,-0.2 0.9,-0.4 1.3,-0.7 0.4,-0.3 0.7,-0.7 1,-1.2 v 0 1.9 h 3.2 V 30 h -3.2 v 1.8 0 c -0.3,-0.4 -0.6,-0.8 -1,-1.1 -0.4,-0.3 -0.8,-0.5 -1.3,-0.7 -0.5,-0.2 -1,-0.2 -1.5,-0.2 -1.1,0 -2,0.3 -2.9,0.8 -0.8,0.6 -1.5,1.3 -1.9,2.3 -0.5,1 -0.7,2.1 -0.7,3.4 0,1.3 0.2,2.5 0.7,3.5 0.3,1 1,1.8 1.8,2.4 z m 5.4,-2.3 c -0.5,0.3 -1,0.5 -1.7,0.5 -0.6,0 -1.1,-0.2 -1.6,-0.5 -0.5,-0.3 -0.8,-0.8 -1.1,-1.3 -0.3,-0.6 -0.4,-1.3 -0.4,-2.2 0,-0.9 0.1,-1.6 0.4,-2.2 0.3,-0.6 0.6,-1 1.1,-1.3 0.5,-0.3 1,-0.5 1.6,-0.5 0.6,0 1.2,0.2 1.7,0.5 0.5,0.3 0.9,0.8 1.1,1.4 0.3,0.6 0.4,1.3 0.4,2.1 0,0.8 -0.1,1.5 -0.4,2.1 -0.3,0.6 -0.7,1 -1.1,1.4 z M 248.8,30 v 12.7 h 3.2 v -7.1 c 0,-0.7 0.1,-1.2 0.3,-1.6 0.2,-0.4 0.5,-0.8 0.9,-1 0.4,-0.2 0.8,-0.3 1.3,-0.3 0.3,0 0.6,0 0.9,0 0.3,0 0.5,0 0.6,0 v -2.8 c -0.1,0 -0.3,0 -0.4,0 -0.2,0 -0.4,0 -0.6,0 -0.8,0 -1.5,0.2 -2,0.6 -0.5,0.4 -0.9,0.9 -1.1,1.7 v 0 -2.2 z m -7.3,13 c -1.3,0 -2.4,-0.3 -3.3,-0.9 -0.9,-0.6 -1.7,-1.4 -2.2,-2.3 -0.5,-1 -0.8,-2.1 -0.8,-3.4 0,-1.3 0.3,-2.4 0.8,-3.4 0.5,-1 1.2,-1.8 2.2,-2.4 0.9,-0.6 2,-0.9 3.2,-0.9 0.9,0 1.8,0.2 2.5,0.5 0.8,0.3 1.4,0.8 1.9,1.4 0.5,0.6 1,1.3 1.3,2.1 0.3,0.8 0.4,1.7 0.4,2.7 v 0.9 h -9.1 c 0,0.6 0.1,1.2 0.4,1.6 0.3,0.5 0.6,0.9 1.1,1.2 0.5,0.3 1.1,0.4 1.7,0.4 0.5,0 0.9,-0.1 1.3,-0.2 0.4,-0.2 0.7,-0.4 1,-0.6 0.3,-0.3 0.4,-0.6 0.6,-0.9 h 3 c -0.2,0.8 -0.5,1.6 -1.1,2.2 -0.5,0.6 -1.2,1.1 -2.1,1.5 -0.9,0.3 -1.8,0.5 -2.8,0.5 z m 3,-7.9 h -6.1 c 0,-0.5 0.2,-0.9 0.3,-1.2 0.3,-0.5 0.6,-0.9 1.1,-1.2 0.5,-0.3 1,-0.4 1.6,-0.4 0.6,0 1.2,0.1 1.6,0.4 0.5,0.3 0.8,0.7 1.1,1.2 0.2,0.3 0.3,0.7 0.4,1.2 z m -22,-5.1 4.8,12.7 h 3.5 L 235.6,30 h -3.3 l -2.2,6.5 c -0.2,0.7 -0.5,1.4 -0.7,2.2 -0.1,0.3 -0.2,0.6 -0.2,0.9 -0.1,-0.3 -0.2,-0.6 -0.3,-0.9 -0.2,-0.7 -0.4,-1.4 -0.7,-2.2 L 225.9,30 Z m -7.8,12.7 V 30 h 3.1 v 2.1 0 c 0.2,-0.7 0.6,-1.3 1.1,-1.7 0.5,-0.4 1.2,-0.6 2,-0.6 0.2,0 0.4,0 0.6,0 0.2,0 0.3,0 0.4,0 v 2.8 c -0.1,0 -0.3,0 -0.6,0 -0.3,0 -0.6,0 -0.9,0 -0.5,0 -0.9,0.1 -1.3,0.3 -0.4,0.2 -0.7,0.5 -0.9,1 -0.2,0.4 -0.3,1 -0.3,1.6 v 7.1 h -3.2 z m -10.8,-0.4 c 0.9,0.4 1.9,0.7 3.1,0.7 1.2,0 2.2,-0.2 3.1,-0.7 0.9,-0.4 1.5,-1 2,-1.8 0.5,-0.8 0.7,-1.7 0.7,-2.8 V 30 h -3.2 v 7.5 c 0,0.6 -0.1,1.1 -0.3,1.5 -0.2,0.4 -0.5,0.7 -0.9,1 -0.4,0.2 -0.8,0.3 -1.4,0.3 -0.6,0 -1,-0.1 -1.4,-0.3 -0.4,-0.2 -0.7,-0.5 -0.9,-1 -0.2,-0.4 -0.3,-0.9 -0.3,-1.5 V 30 h -3.2 v 7.7 c 0,1.1 0.2,2 0.7,2.8 0.4,0.8 1.1,1.4 2,1.8 z M 193.5,43 c -1.3,0 -2.4,-0.3 -3.3,-0.8 -1,-0.6 -1.7,-1.3 -2.2,-2.3 -0.5,-1 -0.8,-2.2 -0.8,-3.5 0,-1.3 0.3,-2.5 0.8,-3.5 0.5,-1 1.3,-1.8 2.2,-2.3 1,-0.6 2.1,-0.8 3.3,-0.8 1.3,0 2.4,0.3 3.3,0.8 0.9,0.6 1.7,1.3 2.2,2.3 0.5,1 0.8,2.2 0.8,3.5 0,1.3 -0.3,2.5 -0.8,3.5 -0.5,1 -1.3,1.8 -2.2,2.3 -0.9,0.5 -2,0.8 -3.3,0.8 z m 0,-2.6 c 0.6,0 1.2,-0.2 1.6,-0.5 0.5,-0.3 0.8,-0.8 1.1,-1.4 0.3,-0.6 0.4,-1.3 0.4,-2.1 0,-0.8 -0.1,-1.5 -0.4,-2.1 -0.2,-0.6 -0.6,-1.1 -1.1,-1.4 -0.5,-0.3 -1,-0.5 -1.6,-0.5 -0.6,0 -1.2,0.2 -1.6,0.5 -0.5,0.3 -0.8,0.8 -1.1,1.4 -0.3,0.6 -0.4,1.3 -0.4,2.1 0,0.8 0.1,1.5 0.4,2.1 0.3,0.6 0.6,1.1 1.1,1.4 0.5,0.3 1,0.5 1.6,0.5 z m -25.9,2.3 V 30 h 3.1 v 2.1 0 c 0.2,-0.7 0.6,-1.3 1.1,-1.7 0.5,-0.4 1.2,-0.6 2,-0.6 0.2,0 0.4,0 0.6,0 0.2,0 0.3,0 0.4,0 v 2.8 c -0.1,0 -0.3,0 -0.6,0 -0.3,0 -0.6,0 -0.9,0 -0.5,0 -0.9,0.1 -1.3,0.3 -0.4,0.2 -0.7,0.5 -0.9,1 -0.2,0.4 -0.3,1 -0.3,1.6 v 7.1 h -3.2 z m -11.8,-0.5 c 0.8,0.6 1.8,0.8 2.9,0.8 0.6,0 1.1,-0.1 1.6,-0.3 0.5,-0.2 0.9,-0.4 1.3,-0.7 0.4,-0.3 0.7,-0.7 1,-1.2 v 0 1.9 h 3.2 V 30 h -3.2 v 1.8 0 c -0.3,-0.4 -0.6,-0.8 -1,-1.1 -0.4,-0.3 -0.8,-0.5 -1.3,-0.7 -0.5,-0.2 -1,-0.2 -1.5,-0.2 -1.1,0 -2,0.3 -2.9,0.8 -0.8,0.6 -1.5,1.3 -1.9,2.3 -0.5,1 -0.7,2.1 -0.7,3.4 0,1.3 0.2,2.5 0.7,3.5 0.3,1 1,1.8 1.8,2.4 z m 5.4,-2.3 c -0.5,0.3 -1,0.5 -1.7,0.5 -0.6,0 -1.1,-0.2 -1.6,-0.5 -0.5,-0.3 -0.8,-0.8 -1.1,-1.3 -0.3,-0.6 -0.4,-1.3 -0.4,-2.2 0,-0.9 0.1,-1.6 0.4,-2.2 0.3,-0.6 0.6,-1 1.1,-1.3 0.5,-0.3 1,-0.5 1.6,-0.5 0.6,0 1.2,0.2 1.7,0.5 0.5,0.3 0.9,0.8 1.1,1.4 0.3,0.6 0.4,1.3 0.4,2.1 0,0.8 -0.1,1.5 -0.4,2.1 -0.3,0.6 -0.7,1 -1.1,1.4 z m -21.3,5.8 h 3.2 v -4.9 0 c 0.3,0.5 0.6,0.9 0.9,1.2 0.4,0.3 0.8,0.6 1.3,0.7 0.5,0.2 1,0.3 1.5,0.3 1.1,0 2.1,-0.3 2.9,-0.8 0.8,-0.6 1.5,-1.3 1.9,-2.3 0.5,-1 0.7,-2.2 0.7,-3.5 0,-1.3 -0.2,-2.4 -0.7,-3.4 -0.5,-1 -1.1,-1.8 -1.9,-2.3 -0.8,-0.6 -1.8,-0.8 -2.9,-0.8 -0.5,0 -1.1,0.1 -1.6,0.2 -0.5,0.2 -0.9,0.4 -1.3,0.7 -0.4,0.3 -0.7,0.7 -1,1.1 v 0 -1.9 h -3.2 v 15.7 z m 7.9,-5.8 c -0.5,0.3 -1,0.5 -1.6,0.5 -0.6,0 -1.2,-0.2 -1.7,-0.5 -0.5,-0.3 -0.8,-0.8 -1.1,-1.4 -0.3,-0.6 -0.4,-1.3 -0.4,-2.1 0,-0.8 0.1,-1.5 0.4,-2.1 0.3,-0.6 0.6,-1.1 1.1,-1.4 0.5,-0.3 1,-0.5 1.7,-0.5 0.6,0 1.1,0.2 1.6,0.5 0.5,0.3 0.8,0.8 1.1,1.3 0.3,0.6 0.4,1.3 0.4,2.2 0,0.9 -0.1,1.6 -0.4,2.2 -0.3,0.5 -0.7,1 -1.1,1.3 z"
         id="path3" /><path
         class="st0"
         d="m 60.2,39.6 c 2.3,-0.9 3.5,-1.4 3.4,-1.9 -0.1,-0.5 -1.3,-0.5 -3.8,-0.5 h -30 c -0.5,0 -0.7,0 -0.9,0.1 -0.2,0.1 -0.4,0.2 -0.7,0.5 L 1.6,58.8 C 1,59.3 0.7,59.5 0.8,59.7 0.9,59.9 1.2,59.9 2,59.9 h 1.9 c 2.1,0 3.2,0 4.2,-0.2 1,-0.2 2,-0.6 4,-1.3 z"
         id="path4" /></g></g><style
     type="text/css"
     id="style1">
	.st0{fill:#0D0D0D;}
	.st1{fill-rule:evenodd;clip-rule:evenodd;fill:#0D0D0D;}
</style></svg>
