<?xml version="1.0" encoding="utf-8"?>
<!-- Generator: Adobe Illustrator 23.0.3, SVG Export Plug-In . SVG Version: 6.00 Build 0)  -->
<svg version="1.1" id="Layer_1" xmlns="http://www.w3.org/2000/svg" xmlns:xlink="http://www.w3.org/1999/xlink" x="0px" y="0px"
	 viewBox="0 0 314 60" style="enable-background:new 0 0 314 60;" xml:space="preserve">
<style type="text/css">
	.st0{fill:#0D0D0D;}
	.st1{fill-rule:evenodd;clip-rule:evenodd;fill:#0D0D0D;}
</style>
<path class="st0" d="M44.3,22.9c-2.7,2.2-4,3.4-3.8,4.6s1.9,1.7,5.3,2.7c5.1,1.6,12.4,3.9,20.4,7c12.5,4.9,28.4,14.2,36.7,19.2
	c2.9,1.8,4.3,2.7,5.8,3.1c1.5,0.4,3.1,0.4,6.4,0.4h0.2c0.5,0,0.7,0,0.8-0.1c0.1-0.1,0-0.4-0.2-0.8L96.6,23.4
	c-0.2-0.3-0.3-0.5-0.4-0.6c-0.1-0.1-0.3-0.1-0.7-0.1H73.1c-1,0-1.6,0-1.6-0.2c0-0.2,0.5-0.4,1.4-0.8l19.6-7.6
	c0.5-0.2,0.8-0.3,0.9-0.5c0.1-0.2,0-0.5-0.3-1L87.6,0.8c-0.2-0.3-0.2-0.5-0.4-0.6c-0.2-0.1-0.3-0.1-0.7-0.1l-14.1,0
	c-0.5,0-0.7,0-0.9,0.1c-0.2,0.1-0.4,0.2-0.8,0.5L44.3,22.9z"/>
<path class="st1" d="M148.4,7.4v4.8h0c-0.3-0.4-0.6-0.8-1-1.1c-0.4-0.3-0.8-0.5-1.2-0.7c-0.5-0.1-0.9-0.2-1.5-0.2
	c-1.1,0-2,0.3-2.8,0.8c-0.8,0.5-1.4,1.3-1.9,2.3c-0.4,1-0.7,2.1-0.7,3.3c0,1.3,0.2,2.4,0.7,3.4s1.1,1.7,1.9,2.3
	c0.8,0.5,1.7,0.8,2.8,0.8c0.5,0,1.1-0.1,1.5-0.2c0.5-0.2,0.9-0.4,1.3-0.7c0.4-0.3,0.7-0.7,0.9-1.2h0v1.9h3.1V7.4H148.4z M180.1,7.4
	v3h-2.2v2.5h2.2v6.7c0,1.1,0.3,1.9,0.9,2.4c0.6,0.5,1.6,0.8,2.9,0.8h1.8v-2.5h-1.3c-0.5,0-0.8-0.1-1-0.2c-0.2-0.2-0.3-0.5-0.3-0.9
	v-6.2h2.5v-2.5h-2.5v-3H180.1z M210.6,7.4v15.4h3.1v-6.9c0-0.7,0.1-1.2,0.3-1.7c0.2-0.4,0.5-0.8,0.9-1c0.4-0.2,0.8-0.3,1.4-0.3
	c0.8,0,1.4,0.2,1.8,0.7c0.4,0.5,0.6,1.1,0.6,2v7.2h3.1v-7.7c0-1.1-0.2-1.9-0.6-2.7c-0.4-0.7-0.9-1.3-1.5-1.6
	c-0.7-0.4-1.4-0.6-2.3-0.6c-1.1,0-2,0.3-2.7,0.9c-0.4,0.3-0.7,0.7-1,1.2V7.4H210.6z M145.4,20.5c0.6,0,1.2-0.2,1.6-0.5
	c0.5-0.3,0.8-0.8,1.1-1.3c0.3-0.6,0.4-1.3,0.4-2c0-0.8-0.1-1.5-0.4-2c-0.2-0.6-0.6-1-1.1-1.3c-0.5-0.3-1-0.5-1.6-0.5
	c-0.6,0-1.1,0.2-1.5,0.5c-0.4,0.3-0.8,0.7-1,1.3c-0.3,0.6-0.4,1.3-0.4,2.1s0.1,1.5,0.4,2.1c0.2,0.6,0.6,1,1,1.3
	C144.4,20.3,144.9,20.5,145.4,20.5z M226,22.2c0.9,0.6,2,0.8,3.2,0.8c1,0,1.9-0.2,2.7-0.5c0.8-0.4,1.5-0.8,2-1.4
	c0.5-0.6,0.9-1.3,1-2.1H232c-0.1,0.3-0.3,0.6-0.5,0.9c-0.2,0.2-0.6,0.4-0.9,0.6c-0.4,0.1-0.8,0.2-1.3,0.2c-0.7,0-1.2-0.1-1.7-0.4
	c-0.5-0.3-0.8-0.7-1.1-1.2c-0.2-0.5-0.3-1-0.4-1.6h8.9v-0.8c0-1-0.1-1.8-0.4-2.6c-0.3-0.8-0.7-1.5-1.2-2c-0.5-0.6-1.2-1-1.9-1.3
	c-0.7-0.3-1.5-0.5-2.4-0.5c-1.2,0-2.2,0.3-3.1,0.8c-0.9,0.6-1.6,1.3-2.1,2.3c-0.5,1-0.8,2.1-0.8,3.3c0,1.2,0.2,2.4,0.7,3.3
	C224.3,20.9,225,21.7,226,22.2z M226.2,15.3c0-0.4,0.2-0.8,0.3-1.2c0.3-0.5,0.6-0.9,1-1.1s1-0.4,1.6-0.4c0.6,0,1.1,0.1,1.6,0.4
	c0.4,0.3,0.8,0.6,1,1.1c0.2,0.4,0.3,0.8,0.3,1.2H226.2z M236.3,10.4v12.3h3.1v-6.9c0-0.6,0.1-1.2,0.3-1.6c0.2-0.4,0.5-0.7,0.9-1
	c0.4-0.2,0.8-0.3,1.3-0.3c0.3,0,0.6,0,0.8,0c0.3,0,0.5,0,0.6,0v-2.7c-0.1,0-0.3,0-0.4,0c-0.2,0-0.3,0-0.5,0c-0.8,0-1.5,0.2-1.9,0.5
	c-0.5,0.4-0.8,0.9-1.1,1.6h0v-2.1H236.3z M200.5,22.3c0.9,0.5,2,0.8,3.2,0.8c0.8,0,1.5-0.1,2.2-0.4c0.7-0.2,1.3-0.6,1.8-1
	c0.5-0.4,0.9-0.9,1.2-1.5c0.3-0.6,0.5-1.2,0.5-1.9h-3.1c-0.1,0.3-0.2,0.6-0.3,0.9c-0.1,0.3-0.3,0.5-0.5,0.7
	c-0.2,0.2-0.5,0.3-0.8,0.5c-0.3,0.1-0.6,0.2-1,0.2c-0.6,0-1.1-0.2-1.6-0.5c-0.4-0.3-0.8-0.8-1-1.3c-0.2-0.6-0.4-1.3-0.4-2.1
	c0-0.8,0.1-1.5,0.4-2.1c0.2-0.6,0.6-1,1-1.4c0.5-0.3,1-0.5,1.6-0.5c0.4,0,0.7,0.1,1,0.2s0.6,0.3,0.8,0.5c0.2,0.2,0.4,0.4,0.5,0.7
	c0.1,0.3,0.2,0.6,0.3,0.9h3c-0.1-0.7-0.2-1.3-0.6-1.9c-0.3-0.6-0.7-1.1-1.2-1.5c-0.5-0.4-1.1-0.8-1.8-1c-0.7-0.2-1.4-0.4-2.2-0.4
	c-1.2,0-2.3,0.3-3.2,0.8s-1.6,1.3-2.1,2.3c-0.5,1-0.8,2.1-0.8,3.4c0,1.3,0.3,2.4,0.8,3.4C198.9,21,199.6,21.7,200.5,22.3z
	 M191.6,23.1c-1,0-1.9-0.2-2.8-0.5c-0.8-0.3-1.4-0.8-1.9-1.4c-0.5-0.6-0.8-1.4-0.8-2.2h3.1c0.1,0.6,0.3,1,0.7,1.4
	c0.4,0.3,1,0.5,1.7,0.5c0.7,0,1.2-0.1,1.6-0.4c0.4-0.3,0.6-0.6,0.6-1c0-0.4-0.1-0.6-0.4-0.9c-0.3-0.2-0.7-0.4-1.2-0.5l-2.1-0.4
	c-1.2-0.2-2.1-0.7-2.7-1.3c-0.6-0.6-0.9-1.4-0.9-2.3c0-0.8,0.2-1.4,0.6-2c0.4-0.6,1-1,1.8-1.3c0.8-0.3,1.7-0.5,2.7-0.5
	c1,0,1.9,0.2,2.7,0.5c0.8,0.3,1.4,0.8,1.8,1.4c0.4,0.6,0.7,1.3,0.7,2.2h-2.9c0-0.5-0.2-1-0.6-1.3c-0.4-0.4-0.9-0.5-1.6-0.5
	c-0.6,0-1.1,0.1-1.5,0.4c-0.4,0.3-0.5,0.6-0.5,1c0,0.4,0.1,0.7,0.4,0.9c0.3,0.2,0.7,0.4,1.2,0.5l2.3,0.5c1.2,0.2,2.1,0.7,2.7,1.2
	c0.6,0.6,0.9,1.3,0.9,2.2c0,0.8-0.2,1.5-0.7,2.1c-0.5,0.6-1.1,1.1-1.9,1.4C193.6,22.9,192.6,23.1,191.6,23.1z M171.6,23.1
	c-1.2,0-2.2-0.2-3-0.6c-0.8-0.4-1.5-1-2-1.8c-0.5-0.8-0.7-1.7-0.7-2.7v-7.4h3.1v7.3c0,0.6,0.1,1.1,0.3,1.5c0.2,0.4,0.5,0.7,0.9,0.9
	c0.4,0.2,0.8,0.3,1.4,0.3s1-0.1,1.4-0.3c0.4-0.2,0.7-0.5,0.9-0.9c0.2-0.4,0.3-0.9,0.3-1.5v-7.3h3.1v7.4c0,1.1-0.2,2-0.7,2.7
	c-0.5,0.8-1.1,1.4-1.9,1.8C173.7,22.8,172.7,23.1,171.6,23.1z M155.6,22.2c0.9,0.6,2,0.8,3.2,0.8c1,0,1.9-0.2,2.7-0.5
	c0.8-0.4,1.5-0.8,2-1.4c0.5-0.6,0.9-1.3,1-2.1h-2.9c-0.1,0.3-0.3,0.6-0.5,0.9c-0.2,0.2-0.6,0.4-0.9,0.6c-0.4,0.1-0.8,0.2-1.3,0.2
	c-0.7,0-1.2-0.1-1.7-0.4c-0.5-0.3-0.8-0.7-1.1-1.2c-0.2-0.5-0.3-1-0.4-1.6h8.9v-0.8c0-1-0.1-1.8-0.4-2.6c-0.3-0.8-0.7-1.5-1.2-2
	c-0.5-0.6-1.2-1-1.9-1.3c-0.7-0.3-1.5-0.5-2.4-0.5c-1.2,0-2.2,0.3-3.1,0.8c-0.9,0.6-1.6,1.3-2.1,2.3c-0.5,1-0.8,2.1-0.8,3.3
	c0,1.2,0.2,2.4,0.7,3.3C154,20.9,154.7,21.7,155.6,22.2z M161.7,15.3h-5.9c0-0.4,0.2-0.8,0.3-1.2c0.2-0.5,0.6-0.9,1-1.1
	c0.4-0.3,1-0.4,1.6-0.4c0.6,0,1.1,0.1,1.6,0.4c0.4,0.3,0.8,0.6,1,1.1C161.6,14.5,161.7,14.9,161.7,15.3z"/>
<path class="st1" d="M178.9,38.6v4.2h-3.2V26.8h3.2v8.2h0l4.8-5.1h3.8l-5.1,5.5l5.4,7.2h-3.8l-4-5.4L178.9,38.6z M256.9,26.8v15.9
	h3.2v-2h0c0.3,0.5,0.6,0.9,1,1.2c0.4,0.3,0.8,0.6,1.3,0.7c0.5,0.2,1,0.3,1.6,0.3c1.1,0,2.1-0.3,2.9-0.8c0.8-0.6,1.5-1.3,1.9-2.3
	c0.5-1,0.7-2.2,0.7-3.5c0-1.3-0.2-2.4-0.7-3.4c-0.5-1-1.1-1.8-1.9-2.3c-0.8-0.6-1.8-0.8-2.9-0.8c-0.5,0-1.1,0.1-1.5,0.2
	c-0.5,0.2-0.9,0.4-1.3,0.7c-0.4,0.3-0.7,0.7-1,1.1h0v-5H256.9z M306.8,26.8v5h0c-0.3-0.5-0.6-0.8-1-1.1c-0.4-0.3-0.8-0.5-1.3-0.7
	c-0.5-0.2-1-0.2-1.5-0.2c-1.1,0-2,0.3-2.9,0.8c-0.8,0.6-1.5,1.3-1.9,2.3c-0.5,1-0.7,2.1-0.7,3.4c0,1.3,0.2,2.5,0.7,3.5
	c0.5,1,1.1,1.8,1.9,2.3s1.8,0.8,2.9,0.8c0.6,0,1.1-0.1,1.6-0.3c0.5-0.2,0.9-0.4,1.3-0.7c0.4-0.3,0.7-0.7,1-1.2h0v2h3.2V26.8H306.8z
	 M263.2,40.3c0.6,0,1.1-0.2,1.6-0.5c0.5-0.3,0.8-0.8,1.1-1.3c0.3-0.6,0.4-1.3,0.4-2.2s-0.1-1.6-0.4-2.2c-0.2-0.6-0.6-1-1.1-1.3
	c-0.5-0.3-1-0.5-1.6-0.5c-0.6,0-1.2,0.2-1.7,0.5c-0.5,0.3-0.8,0.8-1.1,1.4c-0.3,0.6-0.4,1.3-0.4,2.1c0,0.8,0.1,1.5,0.4,2.1
	c0.3,0.6,0.6,1.1,1.1,1.4C262,40.2,262.5,40.3,263.2,40.3z M303.8,40.3c0.6,0,1.2-0.2,1.7-0.5c0.5-0.3,0.9-0.8,1.1-1.4
	c0.3-0.6,0.4-1.3,0.4-2.1c0-0.8-0.1-1.5-0.4-2.1c-0.3-0.6-0.6-1.1-1.1-1.4c-0.5-0.3-1-0.5-1.7-0.5c-0.6,0-1.1,0.2-1.6,0.5
	c-0.5,0.3-0.8,0.8-1.1,1.3c-0.3,0.6-0.4,1.3-0.4,2.2s0.1,1.6,0.4,2.2c0.3,0.6,0.6,1,1.1,1.3C302.6,40.2,303.2,40.3,303.8,40.3z
	 M287.8,35.6v7.2h-3.2V30h3.2v2c0.3-0.5,0.7-1,1.1-1.3c0.7-0.6,1.7-0.9,2.8-0.9c0.9,0,1.7,0.2,2.4,0.6c0.7,0.4,1.2,1,1.6,1.7
	c0.4,0.7,0.6,1.7,0.6,2.7v7.9H293v-7.4c0-0.9-0.2-1.6-0.6-2.1c-0.4-0.5-1-0.7-1.8-0.7c-0.5,0-1,0.1-1.4,0.3c-0.4,0.2-0.7,0.5-1,1
	C287.9,34.3,287.8,34.9,287.8,35.6z M272.8,42.2c0.8,0.6,1.8,0.8,2.9,0.8c0.6,0,1.1-0.1,1.6-0.3c0.5-0.2,0.9-0.4,1.3-0.7
	c0.4-0.3,0.7-0.7,1-1.2h0v1.9h3.2V30h-3.2v1.8h0c-0.3-0.4-0.6-0.8-1-1.1c-0.4-0.3-0.8-0.5-1.3-0.7c-0.5-0.2-1-0.2-1.5-0.2
	c-1.1,0-2,0.3-2.9,0.8c-0.8,0.6-1.5,1.3-1.9,2.3c-0.5,1-0.7,2.1-0.7,3.4c0,1.3,0.2,2.5,0.7,3.5C271.3,40.8,272,41.6,272.8,42.2z
	 M278.2,39.9c-0.5,0.3-1,0.5-1.7,0.5c-0.6,0-1.1-0.2-1.6-0.5c-0.5-0.3-0.8-0.8-1.1-1.3c-0.3-0.6-0.4-1.3-0.4-2.2s0.1-1.6,0.4-2.2
	c0.3-0.6,0.6-1,1.1-1.3c0.5-0.3,1-0.5,1.6-0.5c0.6,0,1.2,0.2,1.7,0.5c0.5,0.3,0.9,0.8,1.1,1.4c0.3,0.6,0.4,1.3,0.4,2.1
	c0,0.8-0.1,1.5-0.4,2.1C279,39.1,278.6,39.5,278.2,39.9z M248.8,30v12.7h3.2v-7.1c0-0.7,0.1-1.2,0.3-1.6c0.2-0.4,0.5-0.8,0.9-1
	c0.4-0.2,0.8-0.3,1.3-0.3c0.3,0,0.6,0,0.9,0c0.3,0,0.5,0,0.6,0v-2.8c-0.1,0-0.3,0-0.4,0c-0.2,0-0.4,0-0.6,0c-0.8,0-1.5,0.2-2,0.6
	c-0.5,0.4-0.9,0.9-1.1,1.7h0V30H248.8z M241.5,43c-1.3,0-2.4-0.3-3.3-0.9c-0.9-0.6-1.7-1.4-2.2-2.3c-0.5-1-0.8-2.1-0.8-3.4
	c0-1.3,0.3-2.4,0.8-3.4c0.5-1,1.2-1.8,2.2-2.4c0.9-0.6,2-0.9,3.2-0.9c0.9,0,1.8,0.2,2.5,0.5c0.8,0.3,1.4,0.8,1.9,1.4
	c0.5,0.6,1,1.3,1.3,2.1c0.3,0.8,0.4,1.7,0.4,2.7v0.9h-9.1c0,0.6,0.1,1.2,0.4,1.6c0.3,0.5,0.6,0.9,1.1,1.2c0.5,0.3,1.1,0.4,1.7,0.4
	c0.5,0,0.9-0.1,1.3-0.2c0.4-0.2,0.7-0.4,1-0.6c0.3-0.3,0.4-0.6,0.6-0.9h3c-0.2,0.8-0.5,1.6-1.1,2.2c-0.5,0.6-1.2,1.1-2.1,1.5
	C243.4,42.8,242.5,43,241.5,43z M244.5,35.1h-6.1c0-0.5,0.2-0.9,0.3-1.2c0.3-0.5,0.6-0.9,1.1-1.2c0.5-0.3,1-0.4,1.6-0.4
	c0.6,0,1.2,0.1,1.6,0.4c0.5,0.3,0.8,0.7,1.1,1.2C244.3,34.2,244.4,34.6,244.5,35.1z M222.5,30l4.8,12.7h3.5l4.8-12.7h-3.3l-2.2,6.5
	c-0.2,0.7-0.5,1.4-0.7,2.2c-0.1,0.3-0.2,0.6-0.2,0.9c-0.1-0.3-0.2-0.6-0.3-0.9c-0.2-0.7-0.4-1.4-0.7-2.2l-2.3-6.5H222.5z
	 M214.7,42.7V30h3.1v2.1h0c0.2-0.7,0.6-1.3,1.1-1.7c0.5-0.4,1.2-0.6,2-0.6c0.2,0,0.4,0,0.6,0c0.2,0,0.3,0,0.4,0v2.8
	c-0.1,0-0.3,0-0.6,0c-0.3,0-0.6,0-0.9,0c-0.5,0-0.9,0.1-1.3,0.3c-0.4,0.2-0.7,0.5-0.9,1c-0.2,0.4-0.3,1-0.3,1.6v7.1H214.7z
	 M203.9,42.3c0.9,0.4,1.9,0.7,3.1,0.7s2.2-0.2,3.1-0.7c0.9-0.4,1.5-1,2-1.8c0.5-0.8,0.7-1.7,0.7-2.8V30h-3.2v7.5
	c0,0.6-0.1,1.1-0.3,1.5c-0.2,0.4-0.5,0.7-0.9,1c-0.4,0.2-0.8,0.3-1.4,0.3s-1-0.1-1.4-0.3c-0.4-0.2-0.7-0.5-0.9-1
	c-0.2-0.4-0.3-0.9-0.3-1.5V30h-3.2v7.7c0,1.1,0.2,2,0.7,2.8C202.3,41.3,203,41.9,203.9,42.3z M193.5,43c-1.3,0-2.4-0.3-3.3-0.8
	c-1-0.6-1.7-1.3-2.2-2.3c-0.5-1-0.8-2.2-0.8-3.5c0-1.3,0.3-2.5,0.8-3.5c0.5-1,1.3-1.8,2.2-2.3c1-0.6,2.1-0.8,3.3-0.8
	c1.3,0,2.4,0.3,3.3,0.8c0.9,0.6,1.7,1.3,2.2,2.3c0.5,1,0.8,2.2,0.8,3.5c0,1.3-0.3,2.5-0.8,3.5c-0.5,1-1.3,1.8-2.2,2.3
	C195.9,42.7,194.8,43,193.5,43z M193.5,40.4c0.6,0,1.2-0.2,1.6-0.5c0.5-0.3,0.8-0.8,1.1-1.4c0.3-0.6,0.4-1.3,0.4-2.1
	c0-0.8-0.1-1.5-0.4-2.1c-0.2-0.6-0.6-1.1-1.1-1.4c-0.5-0.3-1-0.5-1.6-0.5c-0.6,0-1.2,0.2-1.6,0.5c-0.5,0.3-0.8,0.8-1.1,1.4
	c-0.3,0.6-0.4,1.3-0.4,2.1c0,0.8,0.1,1.5,0.4,2.1c0.3,0.6,0.6,1.1,1.1,1.4C192.4,40.2,192.9,40.4,193.5,40.4z M167.6,42.7V30h3.1
	v2.1h0c0.2-0.7,0.6-1.3,1.1-1.7c0.5-0.4,1.2-0.6,2-0.6c0.2,0,0.4,0,0.6,0c0.2,0,0.3,0,0.4,0v2.8c-0.1,0-0.3,0-0.6,0
	c-0.3,0-0.6,0-0.9,0c-0.5,0-0.9,0.1-1.3,0.3c-0.4,0.2-0.7,0.5-0.9,1c-0.2,0.4-0.3,1-0.3,1.6v7.1H167.6z M155.8,42.2
	c0.8,0.6,1.8,0.8,2.9,0.8c0.6,0,1.1-0.1,1.6-0.3c0.5-0.2,0.9-0.4,1.3-0.7c0.4-0.3,0.7-0.7,1-1.2h0v1.9h3.2V30h-3.2v1.8h0
	c-0.3-0.4-0.6-0.8-1-1.1c-0.4-0.3-0.8-0.5-1.3-0.7c-0.5-0.2-1-0.2-1.5-0.2c-1.1,0-2,0.3-2.9,0.8c-0.8,0.6-1.5,1.3-1.9,2.3
	c-0.5,1-0.7,2.1-0.7,3.4c0,1.3,0.2,2.5,0.7,3.5C154.3,40.8,155,41.6,155.8,42.2z M161.2,39.9c-0.5,0.3-1,0.5-1.7,0.5
	c-0.6,0-1.1-0.2-1.6-0.5c-0.5-0.3-0.8-0.8-1.1-1.3c-0.3-0.6-0.4-1.3-0.4-2.2s0.1-1.6,0.4-2.2c0.3-0.6,0.6-1,1.1-1.3
	c0.5-0.3,1-0.5,1.6-0.5c0.6,0,1.2,0.2,1.7,0.5c0.5,0.3,0.9,0.8,1.1,1.4c0.3,0.6,0.4,1.3,0.4,2.1c0,0.8-0.1,1.5-0.4,2.1
	C162,39.1,161.6,39.5,161.2,39.9z M139.9,45.7h3.2v-4.9h0c0.3,0.5,0.6,0.9,0.9,1.2c0.4,0.3,0.8,0.6,1.3,0.7c0.5,0.2,1,0.3,1.5,0.3
	c1.1,0,2.1-0.3,2.9-0.8c0.8-0.6,1.5-1.3,1.9-2.3c0.5-1,0.7-2.2,0.7-3.5c0-1.3-0.2-2.4-0.7-3.4c-0.5-1-1.1-1.8-1.9-2.3
	c-0.8-0.6-1.8-0.8-2.9-0.8c-0.5,0-1.1,0.1-1.6,0.2c-0.5,0.2-0.9,0.4-1.3,0.7c-0.4,0.3-0.7,0.7-1,1.1h0V30h-3.2V45.7z M147.8,39.9
	c-0.5,0.3-1,0.5-1.6,0.5c-0.6,0-1.2-0.2-1.7-0.5c-0.5-0.3-0.8-0.8-1.1-1.4c-0.3-0.6-0.4-1.3-0.4-2.1c0-0.8,0.1-1.5,0.4-2.1
	c0.3-0.6,0.6-1.1,1.1-1.4c0.5-0.3,1-0.5,1.7-0.5c0.6,0,1.1,0.2,1.6,0.5c0.5,0.3,0.8,0.8,1.1,1.3c0.3,0.6,0.4,1.3,0.4,2.2
	s-0.1,1.6-0.4,2.2C148.6,39.1,148.2,39.6,147.8,39.9z"/>
<path class="st0" d="M60.2,39.6c2.3-0.9,3.5-1.4,3.4-1.9c-0.1-0.5-1.3-0.5-3.8-0.5h-30c-0.5,0-0.7,0-0.9,0.1
	c-0.2,0.1-0.4,0.2-0.7,0.5L1.6,58.8c-0.6,0.5-0.9,0.7-0.8,0.9c0.1,0.2,0.4,0.2,1.2,0.2h1.9c2.1,0,3.2,0,4.2-0.2c1-0.2,2-0.6,4-1.3
	L60.2,39.6z"/>
</svg>
