<?xml version="1.0" encoding="UTF-8" standalone="no"?>
<svg
   inkscape:version="1.1.2 (0a00cf5339, 2022-02-04)"
   sodipodi:docname="whatsapp.svg"
   viewBox="0 0 34.677986 34.679562"
   version="1.1"
   id="svg988"
   width="34.677986"
   height="34.679562"
   xmlns:inkscape="http://www.inkscape.org/namespaces/inkscape"
   xmlns:sodipodi="http://sodipodi.sourceforge.net/DTD/sodipodi-0.dtd"
   xmlns="http://www.w3.org/2000/svg"
   xmlns:svg="http://www.w3.org/2000/svg">
  <sodipodi:namedview
     id="namedview1185"
     pagecolor="#ffffff"
     bordercolor="#666666"
     borderopacity="1.0"
     inkscape:pageshadow="2"
     inkscape:pageopacity="0.0"
     inkscape:pagecheckerboard="0"
     showgrid="false"
     inkscape:zoom="6.9062108"
     inkscape:cx="9.7014125"
     inkscape:cy="26.425489"
     inkscape:window-width="1866"
     inkscape:window-height="1016"
     inkscape:window-x="1974"
     inkscape:window-y="27"
     inkscape:window-maximized="1"
     inkscape:current-layer="whatsapp" />
  <defs
     id="defs995" />
  <g
     id="whatsapp"
     transform="matrix(0.25563147,0,0,0.25563214,13.033447,13.852468)"
     style="stroke-width:1.11231">
    <path
       d="m 16.866664,-47.514999 c -33.733,0 -61.166,27.423 -61.178,61.13 a 60.98,60.98 0 0 0 9.349,32.535 l 1.455,2.313 -6.179,22.558 23.146,-6.069 2.235,1.324 c 9.3869998,5.571 20.1499998,8.517 31.126,8.523 h 0.023 c 33.707,0 61.14,-27.426 61.153,-61.135 a 60.75,60.75 0 0 0 -17.895,-43.251 60.75,60.75 0 0 0 -43.235,-17.928 z"
       id="path1030"
       style="fill:none;stroke:#828282;stroke-width:13.3478;stroke-dasharray:none;stroke-opacity:1" />
    <path
       fill="#ffffff"
       d="m -1.5453362,-17.138999 c -1.378,-3.061 -2.828,-3.123 -4.137,-3.176 l -3.524,-0.043 c -1.2259998,0 -3.2179998,0.46 -4.9019998,2.3 -1.684,1.84 -6.435,6.287 -6.435,15.3320004 0,9.045 6.588,17.7849996 7.506,19.0129996 0.918,1.228 12.71799985,20.381 31.405,27.75 15.529,6.124 18.689,4.906 22.061,4.6 3.372,-0.306 10.877,-4.447 12.408,-8.74 1.531,-4.293 1.532,-7.971 1.073,-8.74 -0.459,-0.769 -1.685,-1.226 -3.525,-2.146 -1.84,-0.92 -10.877,-5.367 -12.562,-5.981 -1.685,-0.614 -2.91,-0.919 -4.137,0.921 -1.227,1.84 -4.746,5.979 -5.819,7.206 -1.073,1.227 -2.144,1.381 -3.984,0.462 -1.84,-0.919 -7.76,-2.861 -14.7840002,-9.124 -5.465,-4.873 -9.15399995,-10.891 -10.228,-12.7299996 -1.074,-1.839 -0.114,-2.835 0.80800005,-3.751 0.825,-0.824 1.83799995,-2.147 2.75899995,-3.22 0.921,-1.073 1.224,-1.84000003 1.836,-3.06500003 0.612,-1.22499997 0.307,-2.30099997 -0.153,-3.21999997 -0.46,-0.919 -4.03199995,-10.0110004 -5.666,-13.6470004"
       id="path1032"
       style="stroke:#828282;stroke-width:9;stroke-dasharray:none;stroke-opacity:1" />
  </g>
</svg>
